<svg class="svg-icon" style="width: 1em; height: 1em;vertical-align: middle;fill: currentColor;overflow: hidden;" viewBox="0 0 1024 1024" version="1.1" xmlns="http://www.w3.org/2000/svg"><path d="M74.1 242.5l305.1-0.3c5.2-0.3 8.9-2.5 10.2-7.7l28.1-92c11.7-23.8 29.4-36.7 55.9-33.7l200.1-1.2-0.1 39.2-189.7 0.6c-13.2 1.7-22.1 8.3-26.6 19.8l-18.6 62.6c-2.2 8.9 0.1 13 6.9 12.3h63.8l-35.4 595.8H114L74.1 242.5z m93 674l713.2-3.5c52-5.6 76.7 5.7 79.7-55.5L64 861c1 56 43.8 54.5 103.1 55.5zM580.2 837l282-1.8c52-5.6 61.7-33.3 64.8-94.4l-412.3 0.5c-2.2 60 8.1 87.8 65.5 95.7z m-20.8-237.1c-32.6 2.3-53.5 18.7-55.7 57.5 2.7 37.7 24.9 52.2 55.9 56.4 15.5-1.1 30.8-7.2 42.1-17.7 12.8 10.6 26.6 16.8 43.6 17.9 16 0.1 29.1-4.1 37.8-14.5 7.9 9.3 20.8 14.1 38.9 14 18.3 0 32.9-5.9 40.8-13.8 10.1 10.1 23.4 14.6 39 15.2 15.3-2.2 27.5-7.7 37.3-14.5 12.8 11.9 28.1 15.5 44.8 13.9 36.3-7.9 51.7-29.6 49.7-63-5.4-36-25.1-50.1-53.3-51.4-15.8-1.9-29.9 4.5-43.1 15.5-10.6-11.4-24-16-40.2-13.9-12.9-2.7-25.3 2.5-37.3 13.3-7.9-8.9-19.9-13.3-35.2-14.1-12.5-0.6-27.2 3.2-38.1 13.7-1.3 1.3-2.6 1-3.6 0.4-11.2-12.2-25.6-15.3-41.8-15.2-15.8-0.2-28.1 6.8-37.9 18.6-13-14.4-27.6-20.4-43.7-18.3z m45.6-126c-62.3 6.7-92.3 40.1-90.1 100.1h411.3c-3.1-61.2-30.6-94.5-82.6-100.1H605zM118.1 289.3l5.7 112.6c1.8 5.8 5.4 9 11.7 8.5l199-2.3c4.6-0.1 7.5-2.3 9-6.4l29.8-110.2c-0.6-4.1-2.4-6.8-6.3-7.2l-243.1 0.3c-3.4 0.2-5.4 1.8-5.8 4.7z m343.8 112.4l5.7-109.9c-1.8-5.8-3.4-7.5-8.6-7.3l-29.6-0.6c-4.7 0.1-7.5 2.4-9 6.5l-30.7 109.4c0.6 4.1 2.4 6.8 6.3 7.2l60.1-0.6c3.4 0 5.3-1.6 5.8-4.7z"  /></svg>